<?xml version="1.0" encoding="utf-8"?>
<!-- Generator: Adobe Illustrator 25.4.1, SVG Export Plug-In . SVG Version: 6.00 Build 0)  -->
<svg version="1.1" id="Capa_1" xmlns="http://www.w3.org/2000/svg" xmlns:xlink="http://www.w3.org/1999/xlink" x="0px" y="0px"
	 viewBox="0 0 67.6 43.1" style="enable-background:new 0 0 67.6 43.1;" xml:space="preserve">
<style type="text/css">
	.st0{fill:url(#SVGID_1_);}
	.st1{fill:url(#SVGID_00000160179223742559304910000008022781332526817188_);}
</style>
<g>
	
		<linearGradient id="SVGID_1_" gradientUnits="userSpaceOnUse" x1="6.999874e-02" y1="32.79" x2="51.3105" y2="32.79" gradientTransform="matrix(1 0 0 -1 0 54.4681)">
		<stop  offset="0" style="stop-color:#DEB373"/>
		<stop  offset="0.2184" style="stop-color:#D39D45"/>
		<stop  offset="0.5" style="stop-color:#C6820E"/>
		<stop  offset="0.5979" style="stop-color:#BF7C10"/>
		<stop  offset="1" style="stop-color:#A86518"/>
	</linearGradient>
	<path class="st0" d="M41.9,33.8c-2.3-0.4-4.3-1-6.3-1.9c-2.3-1.1-2.5-1.5-1.7-3.9c0.5-1.4,0.9-2.8,1.5-4.2c0.5-1.4,1.2-1.8,2.6-1.4
		c2.4,0.6,4.6,1.6,6.9,2.4c1.1,0.4,1.4,1.2,1,2.5c-0.6,1.6-1.3,3.2-2,4.9c0.8,0,1.3-0.5,1.7-0.9c1.2-1.3,1.8-2.8,2-4.6
		c0.2-2.4,0.6-4.7,0.9-7.1c0.5-3.3,0.8-6.6,1.5-9.9c0-0.1,0-0.2,0-0.4C50,8.7,50,7.9,50.7,8c0.7,0.1,0.5,0.8,0.5,1.3
		c0.2,5.9-0.2,11.7-0.3,17.6c0,1.8,0.1,3.6-0.4,5.3c-1.1,3.4-3.8,5.3-7,6.3c-3.4,1-6.8,1.2-10.4,0.9c-4.2-0.4-8.2-1.3-12.2-2.5
		c-0.4-0.1-1-0.3-1.3,0.2c0,0.1-0.1,0.2,0,0.3c0,0.3,0.3,0.5,0.6,0.8c1,0.8,0.7,0.5,1,0.7c0.1,0.1,1.2,0.7,1.6,1
		c0.6,0.4,2.1,1,3.9,1.5c1.6,0.4,2.8,0.6,3.6,0.7c1.2,0.1,2.2,0.2,2.4,0.2c0.9,0,1.4,0,1.9,0c0.5,0,0.9,0,1.4,0
		c0.5,0.1,0.8,0.2,1.1,0.3c0,0,0,0.2-0.2,0.2c-5.8,0.4-11.3-0.1-16.3-3.4c-0.4-0.2-0.7-0.5-1.1-0.8c-0.6-0.5-0.9-1.1-0.5-1.9
		c0.4-0.8,1.1-0.9,1.8-0.7c2.6,0.8,5.2,1.5,7.9,2c4.4,0.8,8.8,1.3,13.1,0.2c2.9-0.7,5.5-1.9,7.2-4.5c1.2-1.8,1.2-3.9,1.2-5.9
		c0.2-6,0.1-10.4,0-14.7c0-0.3,0-1.3-0.1-1.3c0,0-0.1,0.3-0.1,0.6c-0.1,1.1-1,8.1-2,15c-0.4,2.8-1.7,4.9-4.4,5.9
		c-0.4,0.1-0.7,0.4-0.9,0.8c-0.5,1-1.3,1.2-2.3,0.9c-2-0.7-4.1-1.4-6.1-2.1c-0.4-0.1-0.8-0.3-1.1-0.4c-1.8-0.5-2.1-1.3-1.5-3.1
		c0.3-1,0.8-1.9,1.2-2.9c0.4-0.9,0.2-1.6-0.9-1.9c-1.9-0.6-3.7-1.4-5.6-2.1c-1.2-0.5-1.6-0.3-2.1,0.9c-0.5,1.3-0.9,2.6-1.4,3.9
		c-0.3,0.7-0.1,1.2,0.7,1.5c1.8,0.7,3.5,1.5,5.3,2.3c0.5,0.2,1,0.4,1.4,0.7c0.7,0.4,0.9,1,0.6,1.7c-0.3,0.7-0.9,1.3-1.7,1
		c-2.5-0.8-5-1.8-7.3-3c-0.7-0.3-0.8-1.1-0.6-1.8c0.2-0.8-0.1-1.2-0.8-1.5c-0.3-0.1-0.6-0.3-0.8-0.5c-2.4-1.2-3.4-3.2-3.5-5.8
		c-0.1-4.3,0.3-8.5,0.3-12.8c0-1.2,0.7-1.6,1.8-1c4.2,2.6,8.9,3.6,13.8,3.5c3.2-0.1,6.4,0,9.5-0.8c2.4-0.6,4.8-1.4,6.6-3.1
		c1.5-1.4,1.4-2.8-0.4-3.8c-2.2-1.2-4.8-1.5-7.2-1.9c-3.9-0.7-7.9-0.6-11.8-0.4C25.2,1.8,21.5,2.2,18.1,4c-0.7,0.4-1.3,0.9-1.7,1.4
		c-0.2,0.3-0.6,0.9-0.8,2.7c-0.2,1.4-0.1,2.1,0,4.8c0,1,0,1,0,2.3c0,4.8,0.3,5.7,0.3,9.5c0,1.4-0.1,2.2,0,4c0,0.7,0,1,0,1.7
		c-0.1,1.7-0.1,2.6-0.4,3.2c-0.6,1-1.8,1.4-3.6,1.7c-1.7,0.3-3.5,0.5-5.2,0.4c-1.9,0-3.8,0-5.7,0c-0.3,0-0.8,0.1-0.8-0.3
		s0.5-0.3,0.8-0.3c2.3,0,4.6,0,6.9,0c1.7,0,3.4-0.4,5.1-0.8c1.9-0.5,2.3-1.2,2.3-3.1c0.1-7.3-0.3-14.7-0.3-22c0-4.5,1.6-5.4,4.7-6.7
		c2.6-1.1,5.5-1.3,8.3-1.6c4.7-0.5,9.3-0.2,13.9,0.5c2.2,0.3,4.4,0.8,6.4,1.8c2.5,1.2,2.8,3,1,5c-1.4,1.5-3.3,2.4-5.2,3
		c-4.7,1.4-9.4,1.8-14.3,1.3c-2.8-0.3-5.5-0.8-8.1-1.8c-1.1-0.4-2.1-1.1-3.2-1.7c-0.7-0.4-0.9-0.2-1,0.6c-0.4,4.3-0.3,8.5-0.2,12.8
		c0,2.4,2.1,4.8,4.3,5.4c0.6,0.2,0.7-0.2,0.8-0.6c0.5-1.5,1-2.9,1.6-4.4c0.5-1.4,1.4-1.8,2.7-1.2c2,0.8,4,1.5,5.9,2.2
		c1.6,0.6,1.9,1.3,1.4,2.9c-0.3,1.1-0.8,2.1-1.2,3.1c-0.4,1-0.1,1.5,1,1.9c2.3,0.7,4.6,1.6,6.9,2.4C40.9,34.1,41.4,34.4,41.9,33.8z
		 M40.9,32.7c1.2,0.2,2-0.3,2.3-1.5c0.4-1.4,1-2.7,1.6-4c0.4-1,0.1-1.6-0.9-1.9c-2-0.7-4.1-1.4-6.1-2.1c-0.9-0.3-1.4,0-1.7,0.8
		c-0.7,1.7-1.2,3.4-1.8,5c-0.2,0.6-0.2,1.2,0.5,1.6C36.8,31.6,38.8,32.4,40.9,32.7z M29.1,33.5c0.6,0,1,0,1.1-0.5
		c0.1-0.6-0.4-0.8-0.7-0.9c-2-0.8-4-1.7-5.9-2.5c-0.4-0.2-0.9-0.6-1.2,0c-0.4,0.7,0,1.2,0.6,1.4c1.3,0.6,2.6,1.1,4,1.7
		C27.6,33.1,28.4,33.3,29.1,33.5z"/>
	
		<radialGradient id="SVGID_00000107553990835438370990000010455883357008714916_" cx="50.5756" cy="15.5732" r="11.8998" fx="39.4794" fy="19.872" gradientTransform="matrix(1 0 0 -1 0 54.4681)" gradientUnits="userSpaceOnUse">
		<stop  offset="1" style="stop-color:#C6820E"/>
		<stop  offset="1" style="stop-color:#BF7C10"/>
		<stop  offset="1" style="stop-color:#A86518"/>
	</radialGradient>
	<path style="fill:url(#SVGID_00000107553990835438370990000010455883357008714916_);" d="M61.5,35.1c1.5,0,3.1,0,4.7,0
		c0.3,0,0.8-0.1,0.8,0.3c0,0.5-0.5,0.4-0.8,0.4c-2.5,0-5.1,0.1-7.7,0c-0.8,0-1.7,0.1-2.4,0.2c-1.9,0.5-3.2,1.4-3.9,1.9
		c0,0-5.2,3.8-11.7,4.6c-1.1,0.1-2.2,0.2-2.2,0.2c-0.3,0-0.4,0-1.1,0c-1.2,0-3,0.1-3,0c0,0,0.7,0,0.7-0.1c0-0.1-0.6-0.2-0.6-0.3
		c0-0.2,3-0.1,5.9-0.5c1.5-0.2,3.5-0.5,5.9-1.4c2-0.8,3.9-1.8,5.7-3.1c2.1-1.6,4.4-2.5,7.1-2.3C59.7,35.1,60.6,35.1,61.5,35.1z"/>
</g>
</svg>
